<svg width="150" height="30" viewBox="0 0 150 30" fill="none" xmlns="http://www.w3.org/2000/svg">
  <path d="M15.5 5H4.5C3.4 5 2.5 5.9 2.5 7V23C2.5 24.1 3.4 25 4.5 25H15.5C16.6 25 17.5 24.1 17.5 23V7C17.5 5.9 16.6 5 15.5 5Z" stroke="#0f766e" stroke-width="2"/>
  <path d="M7.5 10H12.5" stroke="#0f766e" stroke-width="2"/>
  <path d="M7.5 15H12.5" stroke="#0f766e" stroke-width="2"/>
  <path d="M7.5 20H12.5" stroke="#0f766e" stroke-width="2"/>
  <path d="M27.5 6H22.5V8H27.5C28.6 8 29.5 8.9 29.5 10V20C29.5 21.1 28.6 22 27.5 22H22.5V24H27.5C29.7 24 31.5 22.2 31.5 20V10C31.5 7.8 29.7 6 27.5 6Z" fill="#0f766e"/>
  <path d="M41.1797 6.3125H37.1016V23H41.1797V6.3125Z" fill="#233142"/>
  <path d="M55.3203 19.8125V8.78125H51.2422V19.9062C51.2422 21.7188 50.2266 22.6406 48.6797 22.6406C47.1328 22.6406 46.1172 21.7188 46.1172 19.9062V8.78125H42.0391V19.8125C42.0391 24.0469 44.5859 26.0781 48.6797 26.0781C52.7734 26.0781 55.3203 24.0469 55.3203 19.8125Z" fill="#233142"/>
  <path d="M66.7031 26.0781C71.6875 26.0781 74.5781 22.7344 74.5781 17.3906C74.5781 12.0469 71.6875 8.70312 66.7031 8.70312C61.7188 8.70312 58.8281 12.0469 58.8281 17.3906C58.8281 22.7344 61.7188 26.0781 66.7031 26.0781ZM66.7031 22.6406C64.2031 22.6406 62.9062 20.7344 62.9062 17.3906C62.9062 14.0469 64.2031 12.1406 66.7031 12.1406C69.2031 12.1406 70.5 14.0469 70.5 17.3906C70.5 20.7344 69.2031 22.6406 66.7031 22.6406Z" fill="#233142"/>
  <path d="M87.7344 8.78125H83.6562V23H87.7344V16.6406H93.6406V23H97.7188V8.78125H93.6406V13.2031H87.7344V8.78125Z" fill="#233142"/>
  <path d="M108.93 8.78125H104.852V23H108.93V8.78125Z" fill="#233142"/>
  <path d="M120.348 26.0781C125.332 26.0781 128.223 22.7344 128.223 17.3906C128.223 12.0469 125.332 8.70312 120.348 8.70312C115.363 8.70312 112.473 12.0469 112.473 17.3906C112.473 22.7344 115.363 26.0781 120.348 26.0781ZM120.348 22.6406C117.848 22.6406 116.551 20.7344 116.551 17.3906C116.551 14.0469 117.848 12.1406 120.348 12.1406C122.848 12.1406 124.145 14.0469 124.145 17.3906C124.145 20.7344 122.848 22.6406 120.348 22.6406Z" fill="#233142"/>
  <path d="M148 8.78125H143.922V17.5781C143.922 20.6719 142.141 22.6406 139.266 22.6406C136.391 22.6406 134.609 20.6719 134.609 17.5781V8.78125H130.531V17.5781C130.531 22.8594 133.828 26.0781 139.266 26.0781C144.703 26.0781 148 22.8594 148 17.5781V8.78125Z" fill="#233142"/>
</svg>