<svg width="150" height="40" viewBox="0 0 150 40" fill="none" xmlns="http://www.w3.org/2000/svg">
  <path d="M20.5 10C20.5 7.24 22.74 5 25.5 5H40.5C43.26 5 45.5 7.24 45.5 10V30C45.5 32.76 43.26 35 40.5 35H25.5C22.74 35 20.5 32.76 20.5 30V10Z" fill="#005087"/>
  <path d="M25.5 10L33 20L40.5 10" stroke="white" stroke-width="2"/>
  <path d="M25.5 30L33 20L40.5 30" stroke="white" stroke-width="2"/>
  <path d="M52.25 11.25H56.75V28.75H52.25V11.25Z" fill="#005087"/>
  <path d="M61.25 11.25H65.75V28.75H61.25V11.25Z" fill="#005087"/>
  <path d="M70.25 11.25H74.75V23.75C74.75 26.95 72.28 28.75 68.75 28.75H68.25V25.25H68.75C69.65 25.25 70.25 24.7 70.25 23.75V11.25Z" fill="#005087"/>
  <path d="M77.75 11.25H82.25V13.75C83.15 12.15 84.85 11.2 86.75 11.2C90.28 11.2 92.75 13.75 92.75 17.5V28.75H88.25V18.3C88.25 16.6 87.15 15.3 85.5 15.3C83.85 15.3 82.75 16.6 82.75 18.3V28.75H77.75V11.25Z" fill="#005087"/>
  <path d="M93.75 20C93.75 14.95 97.65 11.25 102.75 11.25C107.85 11.25 111.75 14.95 111.75 20C111.75 25.05 107.85 28.75 102.75 28.75C97.65 28.75 93.75 25.05 93.75 20ZM107.25 20C107.25 17.35 105.35 15.5 102.75 15.5C100.15 15.5 98.25 17.35 98.25 20C98.25 22.65 100.15 24.5 102.75 24.5C105.35 24.5 107.25 22.65 107.25 20Z" fill="#005087"/>
  <path d="M116.75 11.25H121.25V13.75C122.15 12.15 123.85 11.25 125.75 11.25V15.5C123.6 15.5 121.75 16.6 121.75 19.25V28.75H116.75V11.25Z" fill="#005087"/>
</svg>